# File created by Blade
# Date/Time:  Wed Jan 21 17:10:37 2015
# Frame Rate: 120.000 fps
#------------------------------------------------------
:FULLY-SPECIFIED
:DEGREES
615
root 19.744529 3.299482 -11.593861 -235.521879 4.216206 -185.991092
Spine 66.130489 6.322642 -9.760512
Head -11.615386 0.815256 2.969130
LeftShoulder 14.878983 -29.215655 -12.398204
LeftArm 17.085690 25.550984 -70.140001
LeftForeArm -70.201097 -0.000000 103.848989
LeftHand -5.118839 0.000000 3.822487
LeftHandThumb1 -26.253704 0.000000 33.147579
RightShoulder 7.332871 10.388118 -26.945569
RightArm 67.817974 5.324957 13.737239
RightForeArm 23.343554 -0.000000 101.330488
RightHand -19.549289 -0.000000 3.636571
RightHandThumb1 -24.326973 -0.000000 -32.862282
LeftUpLeg -35.768632 32.465890 -3.533863
LeftLeg -1.449845 -0.000000 0.000000
LeftFoot 18.274124 35.573328 -0.735235
LeftToeBase 18.479729 -0.000000 -0.000000
RightUpLeg -112.854159 14.393414 77.527839
RightLeg 115.709667 -0.000000 -0.000000
RightFoot 14.833198 -44.043487 -5.413244
RightToeBase 12.939485 -0.000000 -0.000000
616
root 19.745039 3.302195 -11.593532 -235.542945 4.230493 -185.988851
Spine 66.195231 6.263410 -9.805455
Head -11.799965 0.647482 2.957029
LeftShoulder 14.822250 -29.224437 -12.359550
LeftArm 17.059129 25.516647 -70.176232
LeftForeArm -70.422026 -0.000000 103.826513
LeftHand -5.094782 0.000000 3.550632
LeftHandThumb1 -26.253704 0.000000 33.147579
RightShoulder 7.299571 10.432199 -26.990155
RightArm 67.966867 5.420830 13.642909
RightForeArm 23.385908 -0.000000 101.206375
RightHand -19.667904 -0.000000 3.730518
RightHandThumb1 -24.326973 -0.000000 -32.862282
LeftUpLeg -35.738094 32.491499 -3.513456
LeftLeg -1.462990 -0.000000 0.000000
LeftFoot 18.293698 35.596440 -0.716243
LeftToeBase 18.487266 -0.000000 -0.000000
RightUpLeg -112.880445 14.394209 77.424467
RightLeg 115.865934 -0.000000 -0.000000
RightFoot 16.669437 -43.787523 -4.949772
RightToeBase 14.230246 -0.000000 -0.000000
617
root 19.746384 3.305827 -11.593387 -235.588728 4.246163 -185.971652
Spine 66.273941 6.165767 -9.860324
Head -11.928800 0.487263 2.924561
LeftShoulder 14.754903 -29.255834 -12.334300
LeftArm 17.003246 25.436167 -70.204696
LeftForeArm -70.737987 0.000000 103.816882
LeftHand -5.075533 -0.000000 3.330159
LeftHandThumb1 -26.253704 0.000000 33.147579
RightShoulder 7.337701 10.506902 -27.060007
RightArm 68.071035 5.519780 13.459429
RightForeArm 23.457300 0.000000 101.089597
RightHand -19.587507 -0.000000 3.805189
RightHandThumb1 -24.326973 -0.000000 -32.862282
LeftUpLeg -35.679001 32.504452 -3.466938
LeftLeg -1.474698 -0.000000 0.000000
LeftFoot 18.322531 35.602845 -0.700725
LeftToeBase 18.443014 -0.000000 -0.000000
RightUpLeg -112.919876 14.406818 77.471112
RightLeg 115.983862 -0.000000 -0.000000
RightFoot 19.750847 -43.707470 -6.221047
RightToeBase 15.166728 -0.000000 -0.000000
618
root 19.748100 3.308716 -11.593891 -235.616084 4.264565 -185.969780
Spine 66.324102 6.121942 -9.880612
Head -12.033649 0.221217 2.965618
LeftShoulder 14.759467 -29.295012 -12.343978
LeftArm 16.957907 25.464735 -70.203885
LeftForeArm -71.062018 -0.000000 103.901339
LeftHand -4.927828 -0.000000 3.580308
LeftHandThumb1 -26.253704 0.000000 33.147579
RightShoulder 7.319202 10.579894 -27.114615
RightArm 68.168293 5.561901 13.334870
RightForeArm 23.434565 -0.000000 101.027220
RightHand -19.567436 0.000000 3.863868
RightHandThumb1 -24.326973 -0.000000 -32.862282
LeftUpLeg -35.631912 32.507763 -3.418148
LeftLeg -1.479314 -0.000000 0.000000
LeftFoot 18.338654 35.607501 -0.690997
LeftToeBase 18.450069 -0.000000 -0.000000
RightUpLeg -112.939776 14.410521 77.451984
RightLeg 116.137471 -0.000000 -0.000000
RightFoot 22.110235 -43.322328 -6.708398
RightToeBase 16.420902 -0.000000 -0.000000
